<?xml version="1.0" encoding="utf-8"?>
<!-- Generator: Adobe Illustrator 23.0.0, SVG Export Plug-In . SVG Version: 6.00 Build 0)  -->
<svg version="1.1" id="Capa_1" xmlns="http://www.w3.org/2000/svg" xmlns:xlink="http://www.w3.org/1999/xlink" x="0px" y="0px"
	 viewBox="0 0 780 780" style="enable-background:new 0 0 780 780;" xml:space="preserve">
<style type="text/css">
	.st0{fill:#666666;}
</style>
<g>
	<path class="st0" d="M323.8,673.7c0,35.9,30.3,67.1,66.2,67.1s66.2-30.3,66.2-67.1c0-35.9-30.3-67.1-66.2-67.1
		C354.1,607.5,323.8,637.8,323.8,673.7z"/>
	<path class="st0" d="M323.8,390c0,35.9,30.3,67.1,66.2,67.1s66.2-30.3,66.2-67.1c0-35.9-30.3-67.1-66.2-67.1
		C354.1,323.8,323.8,354.1,323.8,390z"/>
	<path class="st0" d="M323.8,106.3c0,35.9,30.3,67.1,66.2,67.1s66.2-30.3,66.2-67.1c0-35.9-30.3-67.1-66.2-67.1
		C354.1,40.1,323.8,70.4,323.8,106.3z"/>
</g>
</svg>
